<mxfile host="Electron" modified="2023-04-20T06:57:15.194Z" agent="Mozilla/5.0 (Windows NT 10.0; Win64; x64) AppleWebKit/537.36 (KHTML, like Gecko) draw.io/21.1.2 Chrome/106.0.5249.199 Electron/21.4.3 Safari/537.36" etag="vjCQ-Imc7qzLRIWC9h1X" version="21.1.2" type="device">
  <diagram id="ZiJ1QPWtikxDmdyrKGaZ" name="Page-1">
    <mxGraphModel dx="1235" dy="731" grid="1" gridSize="10" guides="1" tooltips="1" connect="1" arrows="1" fold="1" page="1" pageScale="1" pageWidth="850" pageHeight="1100" math="0" shadow="0">
      <root>
        <mxCell id="0" />
        <mxCell id="1" parent="0" />
        <mxCell id="5E4w11CoWnl0UhFc0yHq-3" value="" style="whiteSpace=wrap;html=1;aspect=fixed;" parent="1" vertex="1">
          <mxGeometry x="180" width="850" height="850" as="geometry" />
        </mxCell>
        <mxCell id="mLHjseE6QlHjcq5zer_h-18" style="rounded=0;orthogonalLoop=1;jettySize=auto;html=1;entryX=0;entryY=0.5;entryDx=0;entryDy=0;endArrow=none;endFill=0;" parent="1" source="mLHjseE6QlHjcq5zer_h-16" target="mLHjseE6QlHjcq5zer_h-19" edge="1">
          <mxGeometry relative="1" as="geometry">
            <mxPoint x="210" y="330" as="targetPoint" />
          </mxGeometry>
        </mxCell>
        <mxCell id="mLHjseE6QlHjcq5zer_h-16" value="Admin/Employee&lt;br&gt;" style="shape=umlActor;verticalLabelPosition=bottom;verticalAlign=top;html=1;" parent="1" vertex="1">
          <mxGeometry x="70" y="250" width="30" height="60" as="geometry" />
        </mxCell>
        <mxCell id="mLHjseE6QlHjcq5zer_h-19" value="View list student" style="ellipse;whiteSpace=wrap;html=1;" parent="1" vertex="1">
          <mxGeometry x="215" y="245" width="140" height="70" as="geometry" />
        </mxCell>
        <mxCell id="mLHjseE6QlHjcq5zer_h-24" value="" style="group" parent="1" vertex="1" connectable="0">
          <mxGeometry x="410" y="130" width="210" height="80" as="geometry" />
        </mxCell>
        <mxCell id="mLHjseE6QlHjcq5zer_h-25" value="" style="endArrow=open;dashed=1;endFill=0;endSize=12;html=1;exitX=0.961;exitY=0.28;exitDx=0;exitDy=0;exitPerimeter=0;" parent="mLHjseE6QlHjcq5zer_h-24" source="mLHjseE6QlHjcq5zer_h-19" edge="1">
          <mxGeometry width="160" relative="1" as="geometry">
            <mxPoint y="20" as="sourcePoint" />
            <mxPoint x="70" y="50" as="targetPoint" />
          </mxGeometry>
        </mxCell>
        <mxCell id="mLHjseE6QlHjcq5zer_h-27" value="Login" style="ellipse;whiteSpace=wrap;html=1;strokeColor=#000000;" parent="mLHjseE6QlHjcq5zer_h-24" vertex="1">
          <mxGeometry x="70" y="10" width="140" height="70" as="geometry" />
        </mxCell>
        <mxCell id="mLHjseE6QlHjcq5zer_h-26" value="&amp;lt;&amp;lt;include&amp;gt;&amp;gt;" style="text;html=1;align=center;verticalAlign=middle;resizable=0;points=[];autosize=1;rotation=-33;" parent="1" vertex="1">
          <mxGeometry x="355" y="210" width="80" height="20" as="geometry" />
        </mxCell>
        <mxCell id="mLHjseE6QlHjcq5zer_h-38" value="Delete student" style="ellipse;whiteSpace=wrap;html=1;strokeColor=#000000;" parent="1" vertex="1">
          <mxGeometry x="480" y="350" width="140" height="70" as="geometry" />
        </mxCell>
        <mxCell id="mLHjseE6QlHjcq5zer_h-39" value="" style="endArrow=open;dashed=1;endFill=0;endSize=12;html=1;exitX=0;exitY=0.5;exitDx=0;exitDy=0;" parent="1" source="mLHjseE6QlHjcq5zer_h-38" edge="1">
          <mxGeometry width="160" relative="1" as="geometry">
            <mxPoint x="500.5025253169417" y="490.25126265847086" as="sourcePoint" />
            <mxPoint x="350" y="290" as="targetPoint" />
          </mxGeometry>
        </mxCell>
        <mxCell id="mLHjseE6QlHjcq5zer_h-40" value="" style="group;rotation=36;" parent="1" vertex="1" connectable="0">
          <mxGeometry x="340" y="315" width="160" height="20" as="geometry" />
        </mxCell>
        <mxCell id="mLHjseE6QlHjcq5zer_h-41" value="&amp;lt;&amp;lt;extend&amp;gt;&amp;gt;" style="text;html=1;align=center;verticalAlign=middle;resizable=0;points=[];autosize=1;rotation=36;" parent="mLHjseE6QlHjcq5zer_h-40" vertex="1">
          <mxGeometry x="51" y="9" width="80" height="20" as="geometry" />
        </mxCell>
        <mxCell id="mLHjseE6QlHjcq5zer_h-42" value="" style="endArrow=block;endFill=0;endSize=12;html=1;entryX=0.986;entryY=0.386;entryDx=0;entryDy=0;entryPerimeter=0;" parent="1" source="mLHjseE6QlHjcq5zer_h-45" target="mLHjseE6QlHjcq5zer_h-27" edge="1">
          <mxGeometry width="160" relative="1" as="geometry">
            <mxPoint x="680" y="160" as="sourcePoint" />
            <mxPoint x="700" y="180" as="targetPoint" />
          </mxGeometry>
        </mxCell>
        <mxCell id="mLHjseE6QlHjcq5zer_h-43" value="" style="group" parent="1" vertex="1" connectable="0">
          <mxGeometry x="670" y="120" width="210" height="80" as="geometry" />
        </mxCell>
        <mxCell id="mLHjseE6QlHjcq5zer_h-45" value="Login by account" style="ellipse;whiteSpace=wrap;html=1;strokeColor=#000000;" parent="mLHjseE6QlHjcq5zer_h-43" vertex="1">
          <mxGeometry x="70" y="10" width="140" height="70" as="geometry" />
        </mxCell>
        <mxCell id="w8hD4ztKFaCYDbmLWA3L-1" style="edgeStyle=orthogonalEdgeStyle;rounded=0;orthogonalLoop=1;jettySize=auto;html=1;exitX=0.5;exitY=1;exitDx=0;exitDy=0;" parent="1" source="mLHjseE6QlHjcq5zer_h-38" target="mLHjseE6QlHjcq5zer_h-38" edge="1">
          <mxGeometry relative="1" as="geometry" />
        </mxCell>
        <mxCell id="w8hD4ztKFaCYDbmLWA3L-2" value="Confirm delete" style="ellipse;whiteSpace=wrap;html=1;strokeColor=#000000;" parent="1" vertex="1">
          <mxGeometry x="740" y="350" width="140" height="70" as="geometry" />
        </mxCell>
        <mxCell id="w8hD4ztKFaCYDbmLWA3L-3" value="" style="endArrow=open;dashed=1;endFill=0;endSize=12;html=1;exitX=1;exitY=0.5;exitDx=0;exitDy=0;entryX=0;entryY=0.5;entryDx=0;entryDy=0;" parent="1" source="mLHjseE6QlHjcq5zer_h-38" target="w8hD4ztKFaCYDbmLWA3L-2" edge="1">
          <mxGeometry width="160" relative="1" as="geometry">
            <mxPoint x="490" y="395" as="sourcePoint" />
            <mxPoint x="360" y="300" as="targetPoint" />
          </mxGeometry>
        </mxCell>
        <mxCell id="w8hD4ztKFaCYDbmLWA3L-4" value="" style="group;rotation=0;" parent="1" vertex="1" connectable="0">
          <mxGeometry x="580" y="360" width="160" height="10" as="geometry" />
        </mxCell>
        <mxCell id="w8hD4ztKFaCYDbmLWA3L-5" value="&amp;lt;&amp;lt;extend&amp;gt;&amp;gt;" style="text;html=1;align=center;verticalAlign=middle;resizable=0;points=[];autosize=1;rotation=0;" parent="w8hD4ztKFaCYDbmLWA3L-4" vertex="1">
          <mxGeometry x="54" y="0.5" width="80" height="20" as="geometry" />
        </mxCell>
        <mxCell id="DQaCzVmcgnG1dAaoMvrE-4" value="&lt;font style=&quot;font-size: 18px;&quot;&gt;&lt;b style=&quot;&quot;&gt;Fashion Shop&lt;/b&gt;&lt;/font&gt;" style="rounded=0;whiteSpace=wrap;html=1;" vertex="1" parent="1">
          <mxGeometry x="525" width="160" height="60" as="geometry" />
        </mxCell>
      </root>
    </mxGraphModel>
  </diagram>
</mxfile>
